<svg xmlns="http://www.w3.org/2000/svg" width="1280" height="800" viewBox="0 0 1280 800">
  <defs>
    <style>
      .cls-1, .cls-2 {
        fill-rule: evenodd;
      }

      .cls-2 {
        fill: red;
      }
    </style>
  </defs>
  <path id="Color_Fill_1" data-name="Color Fill 1" class="cls-1" d="M181.478,568.382c-12.5-16.245-19-24.808-19.074-25.972q-0.111-1.482,2.445-4.208,15.321-16.716,20.606-30.3,5-12.87,3.873-31.257c-1.108-17.8-9.1-28.663-24.228-32.333-13.683-3.323-31.5-.35-53.25,9.076-8.324,3.611-20.867,9.268-37.61,17.133s-29.309,13.819-37.716,17.689q-6.308,2.905-5.851,5.261l0.393,1.866q8.872,41.721,13.623,79.97,1.69,13.425,3.614,41.014,1.943,27.582,3.664,40.991,0.354,2.783,3.769,1.2,2.321-1.071,7.06-3.631t7.063-3.612q2.871-1.31,8.471-3.272t8.331-3.182q2.732-1.228,2.452-3.784-0.927-8.4-3.7-24.987t-3.731-25.1q-0.65-5.842,2.255-7.528c2.394-1.408,10.042-5.018,22.948-10.691,7.3-3.2,11.554-5.007,12.779-5.456q8.228-2.552,10.727.973c16.575,22.89,26.19,36.742,29.573,41.091q1.887,2.393,5.033,1.072,2.874-1.206,8.526-3.945t8.53-3.918q2.6-1.073,7.966-2.894t7.964-2.87q2.189-.89,2.13-1.884C200.017,593.58,193.947,584.649,181.478,568.382Zm-64.454-24.468q-15.586,6.776-29.1,12.168-5.849,2.223-8.424,3.127a6.517,6.517,0,0,1-1.9.34L75.013,536.3q-3.185-28.6-2.9-35.633c0.055-2.231,7.929-6.906,23.632-13.826,19.386-8.529,32.988-12.417,40.746-11.9,10.488,0.725,16.264,8.6,17.413,23.489,1.455,19.211-10.845,34.185-36.88,45.482h0ZM346.987,440.192c-20.255-39.256-32.393-60.373-34.752-64.274q-2.412-3.828-3.739-3.347-2.5.912-7.859,3.571t-8,3.645q-2.8,1.034-8.251,2.425a85.549,85.549,0,0,0-8.255,2.45q-2.062.774-3.691,6.22-6.588,18.89-10.369,28.474c-14.151,38.124-22.141,61.067-24.8,68.972q-15.583,48.71-29.987,97.174-1.672,5.132-1.593,6.372,0.1,1.743,2.84.637,15.4-6.2,30.8-12.227c2.008-.785,4.575-8.192,7.785-22.245s6.525-21.862,9.854-23.394c2.125-.98,10.841-4.433,26.143-10.163q10.99-4.111,21.978-8.132c14.465-5.29,23.412-8.378,26.843-9.435,4.173-1.314,8.308,3.728,12.314,15.161s7.236,16.728,9.792,15.839q2.6-.9,7.8-3.082t7.8-3.059q2.6-.888,7.589-2.2t7.586-2.178q3.282-1.1,3.309-2.636c-0.115-.526-12.715-29.318-41.14-84.567h0Zm-43.334,49.091q-7.244,2.654-14.487,5.345c-8.816,3.279-13.413,4.979-13.789,5.033-7.141,2.183-10.761,1.872-10.856-.977-0.012-2.1,8.707-28.924,27.723-80.732,3.6,4.605,9.791,14.779,18.339,30.658,8.827,16.374,13.106,25.867,13.138,28.311,0.026,3.388-6.663,7.458-20.068,12.362h0ZM589.026,287.557q-2.778.735-8.363,2.608T572.3,292.8q-2.631.711-7.933,1.775t-7.938,1.8q-2.928.808-3.261,5.11-1.312,16.814-2.594,50.322-1.3,33.516-2.657,50.467-1.547,19.556-2.952,25.3a61.133,61.133,0,0,1-4.976-4.356c-39.954-41.893-72.274-71.788-93.66-91.858q-3.083-2.716-4.406-2.3a64.471,64.471,0,0,0-7.659,3.2q-5.753,2.73-7.809,3.524-5.442,2.136-14.979,5.376-3.673,1.332-3.57,3.207,0.052,0.808.106,1.618,0.669,20.639.694,31.056,0.313,39.957-.093,55.478-0.356,14.232-2.527,43.113-2.154,28.878-2.473,42.97-0.061,2.567,3.357,1.442,2.46-.807,7.324-2.771t7.326-2.751q2.323-.749,7.1-1.894t7.092-1.874q2.732-.864,2.894-5.113,0.751-19.827,1.559-59.332,0.792-39.5,1.526-59.322,0.2-5.277,1.635-5.732c1.019,0.528,4.654,3.534,10.823,9.075,39.733,36.588,67.063,65.755,84.784,85.555q3.077,3.354,5.524,2.682,2.177-.6,6.706-2.22t6.707-2.2q2.043-.552,6.094-1.256t6.09-1.241q3.4-.9,3.8-5.218,1.3-14.257,3.63-42.639t3.62-42.636q1.386-15.173,5.3-45.825t5.329-45.7q0.265-2.877-2.8-2.068h0ZM784.418,292.2q-6.038-19.341-21.668-28.337c-14.519-8.31-38.724-8.958-72.391-1.281q-5.238,1.2-15.444,3.7-10.207,2.517-15.161,3.715-5.391,1.292-16.087,3.769-10.7,2.5-16.1,3.864-3.8.952-4.079,3.71-1.58,15.226-3.6,45.514-2.038,30.3-3.64,45.524-1.507,14.442-5.7,43.614T604.9,459.458q-0.34,3.282,3.057,2.426c4.257-1.068,10.684-2.843,19.279-5.279s15.017-4.129,19.27-5.134c4.7-1.11,11.762-2.6,21.16-4.4s16.435-3.184,21.129-4.216c24.533-5.387,46-19.3,64.994-42.177,17.442-21.014,28.476-43.947,32.661-68.9,2.409-14.38,1.778-27.593-2.03-39.585h0Zm-57.093,99.282q-10.809,12.652-22.842,19.086c-6.5,3.455-14.988,6.328-25.48,8.686-14.785,3.333-21.465,4.967-20.012,4.7-10.894,2.025-16.159,1.423-15.769-1.918q1.172-10,3.029-29.908t3.019-29.906q1.183-10.137,4.041-30.47t4.053-30.472c0.378-3.243,6.224-6.492,17.536-9.641-3.292.951,3.576-.613,20.569-4.453,20.55-4.625,36.1-1.876,46.412,8.07,9.915,9.607,13.263,24.054,10.3,43.176-3.036,19.575-11.4,37.236-24.853,53.045h0ZM972.038,239.64q3.27-15.429,5.033-23.1,1.021-4.439-2.41-4.019-2.716.335-8.312,1.426t-8.316,1.452q-2.576.333-7.783,0.625t-7.79.65q-3.3.446-4.079,4.072-1.566,7.248-3.606,21.793t-3.625,21.8c-0.671,3.138-9.076,13.331-24.913,30.679q-17.086,18.834-29.715,31.806C853.74,298.982,842,282.886,843.044,277.505q1.386-7.479,5.013-22.587t5.027-22.59q0.4-2.136-2.2-1.7-3.029.513-8.872,1.906t-8.73,1.91q-2.455.432-7.219,0.893t-7.225.913a4.722,4.722,0,0,0-4.088,4.23q-5.464,31.721-8.074,48.46a11.2,11.2,0,0,0,1.212,7.267c3.745,6.81,10.046,16.607,18.672,29.518,10.243,14.362,17.7,25.242,22.684,32.477q2.52,4.134,1.344,10.156-1.353,6.959-5.008,21.024t-4.967,20.888q-0.753,3.882,1.929,3.452,15.956-2.537,31.872-4.862,3.342-.487,3.846-2.9,1.481-7.106,3.739-21.413T885.755,363q1.113-5.361,6.135-11.031,20.276-22.817,41.153-45.512c21.29-24.085,32.8-38.6,33.957-43.721q1.764-7.666,5.038-23.1h0Zm47.872,134.536q2.505-11.261,3.97-16.91,1.545-5.906,5.01-17.778t5-17.779c0.22-.822-0.11-1.195-0.97-1.119q-1.755.156-5.25,0.269c-2.32.077-4.08,0.172-5.25,0.281q-0.93.086-2.22,2.161c-13.89,22.612-24.405,39.7-31.768,51.251q-2.7,4.275-3.2,4.326-0.407.042-1.25-4.771c-2.382-13.681-5.537-29.163-9.583-46.4q-0.433-2-.955-1.937a99.134,99.134,0,0,0-10.88,2.146,1.732,1.732,0,0,0-1.46,1.267q-1.375,5.891-3.591,17.631t-3.6,17.632q-1.329,5.685-4.519,17.093T944.88,398.63q-0.228.974,1.038,0.825,0.91-.106,2.744-0.468t2.743-.466q0.86-.1,2.6-0.147t2.593-.143a2.021,2.021,0,0,0,1.668-1.833q1.577-6.611,4.5-19.806t4.5-19.806a1.947,1.947,0,0,1,.68-1.173,1.1,1.1,0,0,1,.5.642c2.692,12.736,4.564,22.356,5.723,28.825q1.371,7.146,2.061,11.123,0.291,0.819,5.033.33,3.278-.335,3.8-1.034,4.66-7.272,7.406-12.1c10.472-16.812,17.132-27.156,19.822-31.05a1.257,1.257,0,0,1,.86-0.631c0.27-.026.33,0.287,0.16,0.937q-1.665,6.52-5.4,19.6t-5.41,19.6c-0.28,1.13-.01,1.655.83,1.577,0.61-.056,1.54-0.193,2.81-0.41s2.2-.352,2.81-0.407,1.5-.086,2.7-0.093,2.1-.036,2.7-0.089a1.683,1.683,0,0,0,1.59-1.395q1.47-5.6,3.98-16.86h0Zm24.8-2.656q2.76-11.788,4.35-17.7,1.545-5.755,5.06-17.3t5.07-17.3c0.19-.685-0.17-0.994-1.06-0.924-0.62.048-1.56,0.172-2.83,0.373s-2.21.327-2.83,0.377q-1.035.083-3,.092c-1.32.007-2.3,0.038-2.96,0.092a1.633,1.633,0,0,0-1.52,1.383q-1.515,5.7-4,17.09t-4,17.09q-1.56,5.91-5.22,17.745t-5.2,17.693c-0.21.788,0.11,1.146,0.94,1.077,0.61-.05,1.54-0.177,2.81-0.381s2.21-.331,2.85-0.382c0.6-.048,1.51-0.071,2.72-0.066s2.12-.016,2.72-0.063a1.718,1.718,0,0,0,1.75-1.193Q1041.95,383.309,1044.71,371.52Zm52.43,2.9a36.864,36.864,0,0,0-4.59.659c-2.43.44-3.99,0.717-4.67,0.824-5.27.713-12.76,1.366-22.47,2.024a0.79,0.79,0,0,1-.86-0.3c0.19-.513,7.9-9.668,23.43-27.378,15.55-17.7,23.5-26.61,23.55-26.82a33.9,33.9,0,0,0,1.45-7.627,0.7,0.7,0,0,0-.87-0.812q-14.415.8-28.88,1.774-1.95.132-5.79,0.046t-5.85.063a1.573,1.573,0,0,0-1.4.782q-0.375.708-2.28,5.03c-1.28,2.882-1.95,4.459-2.03,4.733-0.18.686,0.06,1,.75,0.953q13.68-1,27.31-1.844c0.85-.052,1.23.111,1.12,0.488-0.23.826-7.91,9.748-22.78,26.851s-22.21,25.891-22.32,26.264a49.878,49.878,0,0,0-1.24,8.5c-0.02.674,0.44,0.975,1.37,0.907q11.91-.871,23.78-1.618c2-.126,4.96-0.243,8.86-0.339s6.86-.193,8.86-0.3a1.542,1.542,0,0,0,1.52-1.2,44.961,44.961,0,0,1,2.26-5.6,45.125,45.125,0,0,0,2.25-5.543q0.165-.565-0.48-0.53h0Zm54.85-1.617-0.77.075c-10.98,1.156-17.64,1.833-19.97,1.922-1.83.089-3.67,0.18-5.51,0.274-3.32.139-5.3-.128-5.92-0.812-0.8-.845-0.66-3.052.4-6.623q1.14-3.81,2.27-7.62,1.29-4.326,1.14-3.963a3.536,3.536,0,0,1,2.96-2.266c1.52-.2,5.05-0.427,10.58-0.647,6.58-.26,10.77-0.3,12.58-0.158,2.51,0.153,3.96.226,4.36,0.213a1.674,1.674,0,0,0,1.79-.975q0.54-1.7,1.96-5.112,1.44-3.412,1.95-5.061c0.21-.686-0.05-0.984-0.77-0.894-2.88.364-5.35,0.617-7.43,0.756q-7.98.636-17.89,1.048l-1.72.073c-0.75.067-1.33,0.109-1.73,0.127q-2.175.094-2.16-1.48a26.864,26.864,0,0,1,.94-3.649q1.155-3.836,2.29-7.672,1.335-4.479,2.77-5.662t5.61-1.362c2.96-.125,7.31-0.145,13.06-0.034s10.06,0.135,12.94.046a1.516,1.516,0,0,0,1.48-1.22,82.927,82.927,0,0,0,1.56-8.415c0.17-.992-0.54-1.464-2.14-1.412q-3.42.109-10.29,0.558c-4.59.3-8.02,0.51-10.31,0.6q-3.57.147-10.67,0.259t-10.7.308a1.618,1.618,0,0,0-1.68,1.251c-0.05.24-.1,0.479-0.16,0.719q-1.935,8.162-3.05,12.275-4.08,15.981-5.81,21.849-1.7,5.766-5.72,17.355t-5.71,17.354c-0.3,1,.11,1.465,1.2,1.411q3.645-.181,11.02-0.728t11.01-.675c8.55-.345,14.76-0.245,18.64.242a14.313,14.313,0,0,0,1.82.146,1.77,1.77,0,0,0,1.57-.967c1.1-2.381,1.9-4.191,2.38-5.431q0.225-.414,1.29-2.386a13.957,13.957,0,0,0,1.13-2.382c0.29-.927.09-1.346-0.59-1.258h0Zm57.27-3.581c-1.07-8.637-1.55-13.188-1.39-13.67a2.907,2.907,0,0,1,1.37-1.3,38.554,38.554,0,0,0,10.72-8.856,39.977,39.977,0,0,0,6.01-12.016q3.705-11.079-1.75-17.075-4.965-5.419-16.24-5.278c-2.87.042-7.24,0.185-13.1,0.455s-10.26.456-13.17,0.531c-1.46.037-2.28,0.4-2.47,1.086-0.07.274-.14,0.549-0.2,0.823q-4.635,18.414-9.77,34.7-1.8,5.718-5.93,17.2t-5.93,17.2q-0.375,1.185.87,1.152c0.56-.014,1.43-0.088,2.62-0.22s2.06-.2,2.62-0.217a26.679,26.679,0,0,1,2.97.162,27.018,27.018,0,0,0,2.92.167,1.375,1.375,0,0,0,1.34-1.1q1.125-3.555,3.11-10.737,1.965-7.182,3.12-10.789,0.8-2.474,1.89-2.649c0.91-.154,3.66-0.281,8.25-0.358,2.6-.043,4.1-0.047,4.52-0.02,1.84,0.248,2.81.987,2.9,2.217,1.03,12.064,1.63,19.271,1.91,21.6a1.235,1.235,0,0,0,1.3,1.274c0.69-.006,1.74-0.066,3.13-0.178s2.44-.17,3.13-0.173c0.63,0,1.56.043,2.81,0.141s2.18,0.146,2.8.144a0.855,0.855,0,0,0,.93-0.414c0.18-.549-0.23-5.151-1.29-13.79h0Zm-14.55-20.71q-5.505.081-10.19-.083c-1.34-.076-2.29-0.141-2.87-0.2a1.514,1.514,0,0,1-.59-0.193q1.575-4.921,3.14-9.842,3.87-12.108,5.11-14.9c0.39-.894,3.32-1.4,8.78-1.5,6.75-.114,11.16.606,13.25,2.124q4.215,3.087,1.13,12.42c-2.65,8.009-8.56,12.037-17.76,12.169h0Z"/>
  <path id="Color_Fill_3" data-name="Color Fill 3" class="cls-2" d="M936.559,543.663q7.125-2.115,17.479-4.4t21.917-4.193q11.563-1.907,21.245-2.584-48,41-67.364,68.02a34.886,34.886,0,0,0-4.034,7.031,21.632,21.632,0,0,0-1.21,7.877,11.5,11.5,0,0,0,1.21,5.888,6.163,6.163,0,0,0,4.1,2.668,36.046,36.046,0,0,0,7.866.677,251.9,251.9,0,0,0,54.053-6.014,232.116,232.116,0,0,0,49.278-16.306q21.855-10.291,34.96-23.76t13.11-27.784a31.026,31.026,0,0,0-4.77-16.942,39.3,39.3,0,0,0-13.65-12.748q-8.88-5.21-22.05-8.089a135.516,135.516,0,0,0-28.91-2.881,232.766,232.766,0,0,0-31.061,2.118q-15.732,2.118-28.842,5.04t-23.53,6.184a109.01,109.01,0,0,0-15.127,5.633q-11.562,5.844-11.563,20.245,0,5.59,6.857,5.591a24.849,24.849,0,0,0,5.11-.636q2.955-.635,9.748-2.541t13.177-3.473q6.384-1.566,15.261-3.092-7.935.086-17.681,1.1t-10.959,1.017q-1.749,0-1.748-.593Q929.432,545.782,936.559,543.663Zm84.981-12.2q25.95,0,39.53,6.31t13.58,18q0,10.249-10.76,19.652t-28.7,16.856A209.989,209.989,0,0,1,996.8,603.933a193.009,193.009,0,0,1-38.725,4.193,51.424,51.424,0,0,1-10.958-.89q-3.833-.889-3.832-3.092a6.973,6.973,0,0,1,1.075-2.964,28.679,28.679,0,0,1,3.429-4.659q2.351-2.71,3.429-3.9t3.9-4.574q9.007-10.673,15.6-17.45t15.866-15.755q9.278-8.977,12.437-12.494c2.105-2.343,3.165-4.164,3.165-5.464a10.714,10.714,0,0,0-.54-3.007,17.429,17.429,0,0,1-.54-1.906q9.54-.509,20.44-0.508h0Zm92.91,12.2q7.125-2.115,17.48-4.4t21.92-4.193q11.55-1.907,21.24-2.584-48,41-67.36,68.02a34.757,34.757,0,0,0-4.04,7.031,21.783,21.783,0,0,0-1.21,7.877,11.577,11.577,0,0,0,1.21,5.888,6.189,6.189,0,0,0,4.1,2.668,36.1,36.1,0,0,0,7.87.677,251.814,251.814,0,0,0,54.05-6.014,232.1,232.1,0,0,0,49.28-16.306q21.855-10.291,34.96-23.76t13.11-27.784a31.026,31.026,0,0,0-4.77-16.942,39.211,39.211,0,0,0-13.65-12.748q-8.88-5.21-22.05-8.089a135.516,135.516,0,0,0-28.91-2.881,232.774,232.774,0,0,0-31.06,2.118q-15.735,2.118-28.84,5.04t-23.53,6.184a109.135,109.135,0,0,0-15.13,5.633q-11.565,5.844-11.56,20.245,0,5.59,6.85,5.591a24.769,24.769,0,0,0,5.11-.636q2.97-.635,9.75-2.541,6.8-1.907,13.18-3.473t15.26-3.092q-7.935.086-17.68,1.1t-10.96,1.017c-1.16,0-1.75-.2-1.75-0.593Q1107.32,545.782,1114.45,543.663Zm84.98-12.2q25.95,0,39.53,6.31t13.58,18q0,10.249-10.76,19.652t-28.7,16.856a210.028,210.028,0,0,1-38.39,11.648,193.079,193.079,0,0,1-38.73,4.193,51.5,51.5,0,0,1-10.96-.89q-3.825-.889-3.83-3.092a6.971,6.971,0,0,1,1.08-2.964,28.22,28.22,0,0,1,3.43-4.659c1.56-1.807,2.71-3.1,3.43-3.9s2.01-2.315,3.89-4.574q9.015-10.673,15.6-17.45t15.87-15.755q9.27-8.977,12.44-12.494c2.1-2.343,3.16-4.164,3.16-5.464a10.364,10.364,0,0,0-.54-3.007,17.429,17.429,0,0,1-.54-1.906q9.54-.509,20.44-0.508h0Z"/>
  <path id="Color_Fill_2" data-name="Color Fill 2" class="cls-1" d="M586.021,578.574h27.43q-0.137,22.956-24.741,22.956-15.329,0-23.262-8.471t-7.933-29.224q0-23.379,8.135-31.765t21.715-8.386q22.319,0,26.086,22.7l36.3-3.727q-6.858-39.642-63.2-39.643-35.365,0-53.448,16.645t-18.085,45.191q0,26.26,18.354,41.8T583.063,622.2q29.579,0,44.372-14.993l5.244,13.214h17.076V558.753H586.021v19.821Zm77.314-52.095h36.574v93.94h40.338v-93.94h37.514V504.794H663.335v21.685Zm126.931,0.932h77.583q-52.71,40.068-53.784,93.008H857.9q0.672-60.48,44.507-96.142V504.794H793.358Z"/>
</svg>
